<svg xmlns="http://www.w3.org/2000/svg" width="16" height="16" viewBox="0 0 16 16">
  <defs>
    <style>
      .cls-1 {
        fill: #063f58;
      }
    </style>
  </defs>
  <path id="checkbox_on" class="cls-1" d="M-1736,568h-8a4,4,0,0,1-4-4v-8a4,4,0,0,1,4-4h8a4,4,0,0,1,4,4v8A4,4,0,0,1-1736,568Zm-9.068-8.615a.925.925,0,0,0-.656.27.927.927,0,0,0-.275.661.935.935,0,0,0,.275.661l3.154,3.145a.933.933,0,0,0,.633.326.933.933,0,0,0,.661-.279l6.952-6.979a.925.925,0,0,0,.3-.924.928.928,0,0,0-.688-.687.929.929,0,0,0-.217-.026.931.931,0,0,0-.707.326l-6.3,6.271-2.475-2.494A.925.925,0,0,0-1745.069,559.385Z" transform="translate(1748 -552)"/>
</svg>
