<svg xmlns="http://www.w3.org/2000/svg" width="18.475" height="17.9" viewBox="0 0 18.475 17.9">
  <defs>
    <style>
      .cls-1 {
        fill: #ffffff;
      }
    </style>
  </defs>
  <path id="euro" class="cls-1" d="M2.588-2.025a6.562,6.562,0,0,0,4.95-2.1l1.6,1.575A7.54,7.54,0,0,1,6.238-.5,9.947,9.947,0,0,1,2.463.2,9.9,9.9,0,0,1-1.562-.613,8.687,8.687,0,0,1-4.688-2.9a8.569,8.569,0,0,1-1.8-3.425h-2.85v-1.4h2.6q-.05-.65-.05-1.025t.05-1.025h-2.6v-1.4h2.85a8.569,8.569,0,0,1,1.8-3.425,8.687,8.687,0,0,1,3.125-2.287A9.9,9.9,0,0,1,2.463-17.7,9.921,9.921,0,0,1,6.25-17a7.683,7.683,0,0,1,2.888,2.025L7.538-13.4a6.549,6.549,0,0,0-4.95-2.075,6.933,6.933,0,0,0-4,1.175,6.249,6.249,0,0,0-2.425,3.125H4.088v1.4H-4.187A6.582,6.582,0,0,0-4.263-8.75a6.9,6.9,0,0,0,.075,1.025H4.088v1.4H-3.838A6.249,6.249,0,0,0-1.413-3.2,6.933,6.933,0,0,0,2.588-2.025Z" transform="translate(9.337 17.7)"/>
</svg>
