<svg xmlns="http://www.w3.org/2000/svg" width="16.017" height="18.007" viewBox="0 0 16.017 18.007">
  <defs>
    <style>
      .cls-1 {
        fill: #063f58;
      }
    </style>
  </defs>
  <path id="linbleIcon_share" class="cls-1" d="M15.06,10a4,4,0,1,0-4-4,4.35,4.35,0,0,0,.12,1L9.92,8.22a4,4,0,1,0,0,5.56L11.18,15a4.35,4.35,0,0,0-.12,1,4,4,0,1,0,1.13-2.78L10.93,12a4.36,4.36,0,0,0,.13-1,4.36,4.36,0,0,0-.13-1l1.26-1.26A4,4,0,0,0,15.06,10Zm0,4a2,2,0,1,1-2,2A2,2,0,0,1,15.06,14Zm-8-1a2,2,0,1,1,2-2,2,2,0,0,1-2,2Zm8-9a2,2,0,1,1-2,2A2,2,0,0,1,15.06,4Z" transform="translate(-3.044 -2)"/>
</svg>
