<svg xmlns="http://www.w3.org/2000/svg" width="122.725" height="27.039" viewBox="0 0 122.725 27.039">
  <g id="logo" transform="translate(1.725 1.539)">
    <text id="DOOKLEE" transform="translate(32 18)" fill="#fff" font-size="19" font-family="Raleway-SemiBold, Raleway" font-weight="600"><tspan x="0" y="0">DOOKLEE</tspan></text>
    <g id="box" transform="translate(0 0.002)">
      <path id="Path_1" data-name="Path 1" d="M24.515,18.732V9.171a2.39,2.39,0,0,0-1.2-2.068L14.953,2.322a2.391,2.391,0,0,0-2.391,0L4.2,7.1A2.39,2.39,0,0,0,3,9.171v9.561A2.39,2.39,0,0,0,4.2,20.8l8.367,4.781a2.391,2.391,0,0,0,2.391,0L23.319,20.8A2.39,2.39,0,0,0,24.515,18.732Z" transform="translate(-3 -2.002)" fill="none" stroke="#fff" stroke-linecap="round" stroke-linejoin="round" stroke-width="3"/>
      <path id="Path_2" data-name="Path 2" d="M3.27,6.96,13.7,13.112,24.127,6.96" transform="translate(-2.941 -1.072)" fill="none" stroke="#fff" stroke-linecap="round" stroke-linejoin="round" stroke-width="3"/>
      <line id="Line_1" data-name="Line 1" y1="12.28" transform="translate(10.757 11.718)" fill="none" stroke="#fff" stroke-linecap="round" stroke-linejoin="round" stroke-width="3"/>
    </g>
  </g>
</svg>
