<svg xmlns="http://www.w3.org/2000/svg" width="13.2" height="16.133" viewBox="0 0 13.2 16.133">
  <defs>
    <style>
      .cls-1 {
        fill: #063f58;
      }
    </style>
  </defs>
  <path id="mapPinSolid" class="cls-1" d="M3194.6-770.866h0a21.777,21.777,0,0,1-3.3-2.841c-1.506-1.589-3.3-4.04-3.3-6.692a6.608,6.608,0,0,1,6.6-6.6,6.607,6.607,0,0,1,6.6,6.6c0,2.652-1.794,5.1-3.3,6.692a21.76,21.76,0,0,1-3.3,2.841Zm-.1-12a2.5,2.5,0,0,0-2.5,2.5,2.5,2.5,0,0,0,2.5,2.5,2.5,2.5,0,0,0,2.5-2.5A2.5,2.5,0,0,0,3194.5-782.867Z" transform="translate(-3188 787)"/>
</svg>
