<svg xmlns="http://www.w3.org/2000/svg" xmlns:xlink="http://www.w3.org/1999/xlink" width="19.796" height="19.796" viewBox="0 0 19.796 19.796">
  <defs>
    <style>
      .cls-1 {
        fill: none;
      }

      .cls-2 {
        clip-path: url(#clip-path);
      }

      .cls-3 {
        fill: #063f58;
        fill-rule: evenodd;
      }
    </style>
    <clipPath id="clip-path">
      <rect class="cls-1" width="19.796" height="19.796"/>
    </clipPath>
  </defs>
  <g id="twitter" class="cls-2">
    <rect id="Rectangle_393" data-name="Rectangle 393" class="cls-1" width="19.796" height="19.796"/>
    <path id="Path_2" data-name="Path 2" class="cls-3" d="M44.269,18.057A11.445,11.445,0,0,0,55.816,6.509v-.55A8.94,8.94,0,0,0,57.8,3.87a9.13,9.13,0,0,1-2.31.66,4.279,4.279,0,0,0,1.76-2.2,10.087,10.087,0,0,1-2.529.99A3.928,3.928,0,0,0,51.747,2a4.132,4.132,0,0,0-4.069,4.069,2.144,2.144,0,0,0,.11.88A11.37,11.37,0,0,1,39.43,2.66a4.212,4.212,0,0,0-.55,2.09,4.37,4.37,0,0,0,1.76,3.409,3.708,3.708,0,0,1-1.87-.55h0a4.019,4.019,0,0,0,3.3,3.959,3.39,3.39,0,0,1-1.1.11,1.872,1.872,0,0,1-.77-.11,4.166,4.166,0,0,0,3.849,2.859,8.3,8.3,0,0,1-5.059,1.76,3.045,3.045,0,0,1-.99-.11,10.381,10.381,0,0,0,6.269,1.98" transform="translate(-38 0.474)"/>
  </g>
</svg>
