<svg xmlns="http://www.w3.org/2000/svg" xmlns:xlink="http://www.w3.org/1999/xlink" width="20" height="20" viewBox="0 0 20 20">
  <defs>
    <style>
      .cls-1 {
        fill: none;
      }

      .cls-2 {
        clip-path: url(#clip-path);
      }

      .cls-3 {
        fill: #063f58;
        fill-rule: evenodd;
      }
    </style>
    <clipPath id="clip-path">
      <rect class="cls-1" width="20" height="20"/>
    </clipPath>
  </defs>
  <g id="instagram" class="cls-2">
    <path id="Path_3" data-name="Path 3" class="cls-3" d="M9.9,1.76a30.349,30.349,0,0,1,3.959.11,5.1,5.1,0,0,1,1.87.33,3.862,3.862,0,0,1,1.87,1.87,5.1,5.1,0,0,1,.33,1.87c0,.99.11,1.32.11,3.959a30.35,30.35,0,0,1-.11,3.959,5.1,5.1,0,0,1-.33,1.87,3.862,3.862,0,0,1-1.87,1.87,5.1,5.1,0,0,1-1.87.33c-.99,0-1.32.11-3.959.11a30.35,30.35,0,0,1-3.959-.11,5.1,5.1,0,0,1-1.87-.33,3.862,3.862,0,0,1-1.87-1.87,5.1,5.1,0,0,1-.33-1.87c0-.99-.11-1.32-.11-3.959a30.349,30.349,0,0,1,.11-3.959,5.1,5.1,0,0,1,.33-1.87,3.95,3.95,0,0,1,.77-1.1,1.859,1.859,0,0,1,1.1-.77,5.1,5.1,0,0,1,1.87-.33A30.349,30.349,0,0,1,9.9,1.76M9.9,0A32.5,32.5,0,0,0,5.829.11a6.79,6.79,0,0,0-2.42.44,4.305,4.305,0,0,0-1.76,1.1,4.305,4.305,0,0,0-1.1,1.76,5.011,5.011,0,0,0-.44,2.42A32.5,32.5,0,0,0,0,9.9a32.5,32.5,0,0,0,.11,4.069,6.79,6.79,0,0,0,.44,2.42,4.305,4.305,0,0,0,1.1,1.76,4.305,4.305,0,0,0,1.76,1.1,6.79,6.79,0,0,0,2.42.44A32.5,32.5,0,0,0,9.9,19.8a32.5,32.5,0,0,0,4.069-.11,6.79,6.79,0,0,0,2.42-.44,4.614,4.614,0,0,0,2.859-2.859,6.79,6.79,0,0,0,.44-2.42c0-1.1.11-1.43.11-4.069a32.5,32.5,0,0,0-.11-4.069,6.79,6.79,0,0,0-.44-2.42,4.305,4.305,0,0,0-1.1-1.76,4.305,4.305,0,0,0-1.76-1.1,6.79,6.79,0,0,0-2.42-.44A32.5,32.5,0,0,0,9.9,0m0,4.839A4.978,4.978,0,0,0,4.839,9.9,5.059,5.059,0,1,0,9.9,4.839m0,8.358A3.24,3.24,0,0,1,6.6,9.9,3.24,3.24,0,0,1,9.9,6.6a3.24,3.24,0,0,1,3.3,3.3,3.24,3.24,0,0,1-3.3,3.3m5.279-9.788a1.21,1.21,0,1,0,1.21,1.21,1.22,1.22,0,0,0-1.21-1.21"/>
  </g>
</svg>
