<svg xmlns="http://www.w3.org/2000/svg" width="128" height="128" viewBox="0 0 128 128"><rect width="128" height="128" fill="none"/><g transform="translate(12.555 31.21)"><g transform="translate(78.467)"><path d="M299.7,104.842,302.542,102l5.655,5.655-2.842,2.842Z" transform="translate(-299.7 -102)" fill="#b4c5cd"/><g transform="translate(16.262 16.262)"><path d="M357.5,162.642l2.842-2.842L366,165.455l-2.842,2.842Z" transform="translate(-357.5 -159.8)" fill="#b4c5cd"/></g><g transform="translate(15.558 0.028)"><path d="M355,107.755l5.655-5.655,2.842,2.842-5.683,5.627Z" transform="translate(-355 -102.1)" fill="#b4c5cd"/></g></g><g transform="translate(0 24.308)"><g transform="translate(4.895 41.02)"><path d="M62.621,334.2a19.781,19.781,0,0,0-.45,4.3v12.1H38.2v-9a7.378,7.378,0,0,1,7.371-7.371h17.05Z" transform="translate(-38.2 -334.2)" fill="#e9edef"/></g><g transform="translate(13.927 2.476)"><ellipse cx="12.295" cy="12.295" rx="12.295" ry="12.295" fill="#e9edef"/></g><g transform="translate(13.955 2.448)"><path d="M94.933,208.776c-5.571.844-8.975-5.092-8.975-5.092-5.768,5.374-13.083,5.261-15.558,5.008a12.284,12.284,0,0,1,24.533.084Z" transform="translate(-70.4 -197.1)" fill="#fee005"/></g><g transform="translate(2.42 38.544)"><path d="M46.646,325.4h-7.4a9.858,9.858,0,0,0-9.847,9.847v11.479h7.371V335.247A9.882,9.882,0,0,1,46.646,325.4Z" transform="translate(-29.4 -325.4)" fill="#d8dfe2"/></g><g transform="translate(13.927 2.476)"><path d="M77.671,209.495a12.269,12.269,0,0,1,8.609-11.676,12.272,12.272,0,1,0-3.686,23.971,12.193,12.193,0,0,0,3.686-.619A12.269,12.269,0,0,1,77.671,209.495Z" transform="translate(-70.3 -197.2)" fill="#d8dfe2"/></g><g transform="translate(13.955 2.476)"><path d="M86.352,197.819A12.136,12.136,0,0,0,70.4,208.791a21.768,21.768,0,0,0,7.484-.675A12.162,12.162,0,0,1,86.352,197.819Z" transform="translate(-70.4 -197.2)" fill="#f0b000"/></g><g transform="translate(13.702 6.611)"><path d="M93.161,221.943a11.452,11.452,0,0,1-8.3-4.108A23.762,23.762,0,0,1,69.5,221.8l.45-4.9c1.913.169,8.525.394,13.645-4.361a2.455,2.455,0,0,1,2.054-.619,2.548,2.548,0,0,1,1.772,1.21c.028.028,2.673,4.417,6.471,3.883l.731,4.867c-.478.028-.985.056-1.463.056Z" transform="translate(-69.5 -211.899)" fill="#063f58"/></g><g transform="translate(11.451)"><path d="M76.271,217.941a14.771,14.771,0,1,1,14.771-14.771A14.787,14.787,0,0,1,76.271,217.941Zm0-24.618a9.847,9.847,0,1,0,9.847,9.847A9.858,9.858,0,0,0,76.271,193.324Z" transform="translate(-61.5 -188.4)" fill="#063f58"/></g><g transform="translate(0 36.097)"><path d="M25.7,328.995v9h24.59v4.924H23.248a2.449,2.449,0,0,1-2.448-2.448V328.995A12.307,12.307,0,0,1,33.095,316.7H51.861a18.8,18.8,0,0,0-1.041,2.448,22.885,22.885,0,0,0-.7,2.476H33.067A7.378,7.378,0,0,0,25.7,328.995Z" transform="translate(-20.8 -316.7)" fill="#063f58"/></g></g><g transform="translate(34.493 10.607)"><g transform="translate(2.982 47.013)"><path d="M212.042,332.824H154V318.813A12.007,12.007,0,0,1,166.013,306.8h34.015a12.007,12.007,0,0,1,12.013,12.013Z" transform="translate(-154 -306.8)" fill="#e9edef"/></g><g transform="translate(16.993 3.01)"><ellipse cx="14.996" cy="14.996" rx="14.996" ry="14.996" fill="#e9edef"/></g><g transform="translate(17.021 3.039)"><path d="M233.835,164.68c-6.809,1.041-10.972-6.19-10.972-6.19-7.034,6.555-15.952,6.415-18.963,6.133a14.991,14.991,0,0,1,29.935.056Z" transform="translate(-203.9 -150.5)" fill="#fee005"/></g><g transform="translate(2.982 47.013)"><path d="M175.017,306.8h-9A12.007,12.007,0,0,0,154,318.813v14.011h9V318.813A12.007,12.007,0,0,1,175.017,306.8Z" transform="translate(-154 -306.8)" fill="#d8dfe2"/></g><g transform="translate(16.993 3.01)"><path d="M212.8,165.4A14.937,14.937,0,0,1,223.3,151.16a15,15,0,1,0,0,28.472A14.946,14.946,0,0,1,212.8,165.4Z" transform="translate(-203.8 -150.4)" fill="#d8dfe2"/></g><g transform="translate(17.021 3.01)"><path d="M223.369,151.16A14.8,14.8,0,0,0,203.9,164.524a27.056,27.056,0,0,0,9.116-.816A14.947,14.947,0,0,1,223.369,151.16Z" transform="translate(-203.9 -150.4)" fill="#f0b000"/></g><g transform="translate(16.768 8.067)"><path d="M231.838,180.62c-4.642,0-8.075-2.785-10.1-5.008-7.54,5.346-16.093,5.064-18.738,4.839l.563-5.965c2.335.225,10.41.478,16.656-5.317a3,3,0,0,1,2.5-.76,3.094,3.094,0,0,1,2.166,1.463c.028.028,3.235,5.4,7.906,4.727l.9,5.936c-.675.056-1.266.084-1.857.084Z" transform="translate(-203 -168.374)" fill="#063f58"/></g><g transform="translate(13.983)"><path d="M211.106,175.712a18.006,18.006,0,1,1,18.006-18.006A18.023,18.023,0,0,1,211.106,175.712Zm0-29.991a12.013,12.013,0,1,0,12.013,12.013A12.025,12.025,0,0,0,211.106,145.721Z" transform="translate(-193.1 -139.7)" fill="#063f58"/></g><g transform="translate(0 44.031)"><path d="M192.41,296.2H158.4a15.009,15.009,0,0,0-15,15v14.011a3.014,3.014,0,0,0,3.01,3.01h58.013a3.014,3.014,0,0,0,3.01-3.01V311.2A15.051,15.051,0,0,0,192.41,296.2Zm9,26H149.393v-11a9.011,9.011,0,0,1,9-9H192.41a9.011,9.011,0,0,1,9,9Z" transform="translate(-143.4 -296.2)" fill="#063f58"/></g></g><g transform="translate(34.971 1.322)"><path d="M151.093,118.685a5.993,5.993,0,1,1,5.993-5.993A6,6,0,0,1,151.093,118.685Zm0-7.99a2,2,0,1,0,2,2A2.005,2.005,0,0,0,151.093,110.7Z" transform="translate(-145.1 -106.7)" fill="#b4c5cd"/></g></g></svg>