<svg xmlns="http://www.w3.org/2000/svg" width="101.075" height="91.732" viewBox="0 0 101.075 91.732"><g transform="translate(-2.032 -5.944)"><g transform="translate(2.032 5.944)"><g transform="translate(91.203 4.535)"><path d="M34.686,13.371a4.936,4.936,0,1,1,4.936-4.936A4.942,4.942,0,0,1,34.686,13.371Zm0-6.581a1.645,1.645,0,1,0,1.645,1.645A1.65,1.65,0,0,0,34.686,6.79Z" transform="translate(-29.75 -3.5)" fill="#a4afc1"/></g><g transform="translate(13.374 0.581)"><path d="M0,0H6.581V3.29H0Z" transform="translate(0 4.653) rotate(-45)" fill="#a4afc1"/></g><g transform="translate(0 13.957)"><path d="M0,0H6.581V3.29H0Z" transform="translate(0 4.653) rotate(-45)" fill="#a4afc1"/></g><g transform="translate(0.001)"><path d="M0,0H3.29V6.581H0Z" transform="translate(0 2.326) rotate(-45)" fill="#a4afc1"/></g></g><g transform="translate(17.555 21.173)"><path d="M74.2,80.785H13.331A6.579,6.579,0,0,1,6.75,74.2V13.331A6.579,6.579,0,0,1,13.331,6.75H74.2a6.579,6.579,0,0,1,6.581,6.581V74.2A6.579,6.579,0,0,1,74.2,80.785Z" transform="translate(-6.75 -6.75)" fill="#f3f7f9"/><g transform="translate(9.871 46.066)"><path d="M24.557,38.847H13.04a3.292,3.292,0,0,1-3.29-3.29V24.04a3.292,3.292,0,0,1,3.29-3.29H24.557a3.292,3.292,0,0,1,3.29,3.29V35.557A3.292,3.292,0,0,1,24.557,38.847Z" transform="translate(-9.75 -20.75)" fill="#fee005"/></g></g><g transform="translate(17.555 21.173)"><path d="M14.154,74.2V13.331A6.579,6.579,0,0,1,20.734,6.75h-7.4A6.579,6.579,0,0,0,6.75,13.331V74.2a6.579,6.579,0,0,0,6.581,6.581h7.4A6.579,6.579,0,0,1,14.154,74.2Z" transform="translate(-6.75 -6.75)" fill="#e1e8eb"/><g transform="translate(9.871 46.066)"><path d="M17.154,35.557V24.04a3.292,3.292,0,0,1,3.29-3.29h-7.4a3.292,3.292,0,0,0-3.29,3.29V35.557a3.292,3.292,0,0,0,3.29,3.29h7.4A3.292,3.292,0,0,1,17.154,35.557Z" transform="translate(-9.75 -20.75)" fill="#f0b000"/></g></g><g transform="translate(15.088 18.705)"><path d="M75.922,84.971H15.049A9.056,9.056,0,0,1,6,75.922V15.049A9.056,9.056,0,0,1,15.049,6H75.922a9.056,9.056,0,0,1,9.049,9.049V75.922A9.056,9.056,0,0,1,75.922,84.971ZM15.049,10.936a4.119,4.119,0,0,0-4.113,4.113V75.922a4.119,4.119,0,0,0,4.113,4.113H75.922a4.119,4.119,0,0,0,4.113-4.113V15.049a4.119,4.119,0,0,0-4.113-4.113Z" transform="translate(-6 -6)" fill="#063f58"/><g transform="translate(45.244 16.452)"><path d="M19.75,11H41.138v4.936H19.75Z" transform="translate(-19.75 -11)" fill="#063f58"/></g><g transform="translate(45.244 29.614)"><path d="M19.75,15H41.138v4.936H19.75Z" transform="translate(-19.75 -15)" fill="#063f58"/></g><g transform="translate(10.454 13.218)"><path d="M17.173,32.172a2.465,2.465,0,0,1-1.885-.879l-6.11-7.239,3.771-3.182,4.225,5,13.389-15.86L34.332,13.2,19.055,31.3a2.461,2.461,0,0,1-1.882.875Z" transform="translate(-9.177 -10.017)" fill="#063f58"/></g><g transform="translate(9.871 46.066)"><path d="M26.275,43.033H14.758A5.765,5.765,0,0,1,9,37.275V25.758A5.765,5.765,0,0,1,14.758,20H26.275a5.765,5.765,0,0,1,5.758,5.758V37.275A5.765,5.765,0,0,1,26.275,43.033Zm-11.517-18.1a.823.823,0,0,0-.823.823V37.275a.823.823,0,0,0,.823.823H26.275a.823.823,0,0,0,.823-.823V25.758a.823.823,0,0,0-.823-.823Z" transform="translate(-9 -20)" fill="#063f58"/></g><g transform="translate(45.244 49.357)"><path d="M19.75,21H41.138v4.936H19.75Z" transform="translate(-19.75 -21)" fill="#063f58"/></g><g transform="translate(45.244 62.518)"><path d="M19.75,25H41.138v4.936H19.75Z" transform="translate(-19.75 -25)" fill="#063f58"/></g></g></g></svg>