<svg xmlns="http://www.w3.org/2000/svg" width="33.156" height="33.26" viewBox="0 0 33.156 33.26"><path d="M5.871,6H2.418A2.42,2.42,0,0,0,0,8.418V23.959H2.763a1.381,1.381,0,1,1,0,2.763H0v1.727a2.42,2.42,0,0,0,2.418,2.418H5.871a2.42,2.42,0,0,0,2.418-2.418V8.418A2.42,2.42,0,0,0,5.871,6ZM5.526,19.815a1.381,1.381,0,0,1-2.763,0V11.526a1.381,1.381,0,1,1,2.763,0Z" transform="translate(0 2.289)" fill="#fff"/><path d="M12.871,0H9.418A2.42,2.42,0,0,0,7,2.418v23.83H9.763a1.381,1.381,0,1,1,0,2.763H7v1.727a2.42,2.42,0,0,0,2.418,2.418h3.454a2.42,2.42,0,0,0,2.418-2.418V2.418A2.42,2.42,0,0,0,12.871,0Zm-.345,22.1a1.381,1.381,0,1,1-2.763,0V5.526a1.381,1.381,0,1,1,2.763,0Z" transform="translate(2.67)" fill="#fff"/><path d="M19.46,6.006,16.124,6.9a2.42,2.42,0,0,0-1.709,2.96l4.023,15.012,2.669-.716a1.382,1.382,0,1,1,.716,2.669l-2.669.716.448,1.667a2.42,2.42,0,0,0,2.96,1.709l3.336-.894a2.42,2.42,0,0,0,1.709-2.96L22.42,7.716a2.42,2.42,0,0,0-2.96-1.71ZM22.7,19.439a1.382,1.382,0,0,1-2.669.716l-2.145-8.007a1.382,1.382,0,0,1,2.669-.716Z" transform="translate(5.467 2.259)" fill="#fff"/></svg>