<svg xmlns="http://www.w3.org/2000/svg" width="128" height="128" viewBox="0 0 128 128"><g transform="translate(0.093)"><rect width="128" height="128" transform="translate(-0.093)" fill="none"/><g transform="translate(90.143 22.021)"><path d="M361.593,97.385a5.993,5.993,0,1,1,5.993-5.993A6,6,0,0,1,361.593,97.385Zm0-7.99a2,2,0,1,0,2,2A2.005,2.005,0,0,0,361.593,89.4Z" transform="translate(-355.6 -85.4)" fill="#b4c5cd"/></g><g transform="translate(25.096 25.003)"><path d="M124.4,186.031V112.009L166.433,96v90.031Z" transform="translate(-124.4 -96)" fill="#e9edef"/></g><g transform="translate(67.129 45.26)"><path d="M309.812,237.774V183.755L273.8,168v69.774Z" transform="translate(-273.8 -168)" fill="#fee005"/></g><g transform="translate(25.124 25.003)"><path d="M166.5,99.432V96l-42,16.009v74.022h9V112.009Z" transform="translate(-124.5 -96)" fill="#d8dfe2"/></g><g transform="translate(67.129 45.26)"><path d="M273.8,168v69.774h9V171.939Z" transform="translate(-273.8 -168)" fill="#f0b000"/></g><g transform="translate(22.113 22)"><path d="M161.8,178.359H155.8V92.689l-36.012,13.73v71.94H113.8V104.337a3.009,3.009,0,0,1,1.941-2.813l42-16.009a3.062,3.062,0,0,1,2.785.338,3,3,0,0,1,1.294,2.476v90.031Z" transform="translate(-113.8 -85.325)" fill="#063f58"/></g><g transform="translate(77.173 47.286)"><path d="M338.45,245.958h-5.993V190.871L309.5,180.686l2.42-5.486,24.758,10.972a2.963,2.963,0,0,1,1.772,2.757Z" transform="translate(-309.5 -175.2)" fill="#063f58"/></g><g transform="translate(34.099 46.02)"><path d="M156.4,170.7h5.993v12.013H156.4Z" transform="translate(-156.4 -170.7)" fill="#063f58"/></g><g transform="translate(52.105 46.02)"><path d="M220.4,170.7h5.993v12.013H220.4Z" transform="translate(-220.4 -170.7)" fill="#063f58"/></g><g transform="translate(34.099 70.019)"><path d="M156.4,256h5.993v12.013H156.4Z" transform="translate(-156.4 -256)" fill="#063f58"/></g><g transform="translate(52.105 70.019)"><path d="M220.4,256h5.993v12.013H220.4Z" transform="translate(-220.4 -256)" fill="#063f58"/></g><g transform="translate(34.099 94.017)"><path d="M156.4,341.3h5.993v12.013H156.4Z" transform="translate(-156.4 -341.3)" fill="#063f58"/></g><g transform="translate(52.105 94.017)"><path d="M220.4,341.3h5.993v12.013H220.4Z" transform="translate(-220.4 -341.3)" fill="#063f58"/></g><g transform="translate(76.132 70.019)"><path d="M305.8,256h5.993v12.013H305.8Z" transform="translate(-305.8 -256)" fill="#063f58"/></g><g transform="translate(88.117 70.019)"><path d="M348.4,256h5.993v12.013H348.4Z" transform="translate(-348.4 -256)" fill="#063f58"/></g><g transform="translate(76.132 94.017)"><path d="M305.8,341.3h5.993v12.013H305.8Z" transform="translate(-305.8 -341.3)" fill="#063f58"/></g><g transform="translate(88.117 94.017)"><path d="M348.4,341.3h5.993v12.013H348.4Z" transform="translate(-348.4 -341.3)" fill="#063f58"/></g><g transform="translate(7.133 112.024)"><path d="M28.4,405.3H142.533v5.993H28.4Z" transform="translate(-28.4 -405.3)" fill="#063f58"/></g></g></svg>