<svg xmlns="http://www.w3.org/2000/svg" width="33.155" height="33.155" viewBox="0 0 33.155 33.155"><path d="M6.217,8.253V2.036A3.678,3.678,0,0,1,6.355,1H2.418A2.429,2.429,0,0,0,0,3.418V9.634a2.429,2.429,0,0,0,2.418,2.418h.511L4.7,14.4a1.066,1.066,0,0,0,.787.414h.041a.983.983,0,0,0,.774-.359l2.072-2.362A4.539,4.539,0,0,1,6.217,8.253Z" transform="translate(0 0.381)" fill="#fff"/><path d="M23.894,1H19.957A3.678,3.678,0,0,1,20.1,2.036V8.253a4.539,4.539,0,0,1-2.155,3.84l2.072,2.362a.983.983,0,0,0,.774.359h.041a1.066,1.066,0,0,0,.787-.414l1.754-2.348h.525a2.429,2.429,0,0,0,2.418-2.418V3.418A2.429,2.429,0,0,0,23.894,1Z" transform="translate(6.843 0.381)" fill="#fff"/><path d="M14.289,13.815H14.25a1.04,1.04,0,0,1-.79-.414L11.7,11.052H8.418A2.42,2.42,0,0,1,6,8.634V2.418A2.42,2.42,0,0,1,8.418,0H20.16a2.42,2.42,0,0,1,2.418,2.418V8.634a2.42,2.42,0,0,1-2.418,2.418H17.176l-2.108,2.409a1.033,1.033,0,0,1-.779.354Z" transform="translate(2.289)" fill="#fff"/><ellipse cx="2.932" cy="2.932" rx="2.932" ry="2.932" transform="translate(2.346 18.134)" fill="#fff"/><path d="M9.214,18.553A5.789,5.789,0,0,0,6.907,23.18v.345H1.036A1.044,1.044,0,0,1,0,22.49V21.8A3.8,3.8,0,0,1,3.8,18H7.253A3.774,3.774,0,0,1,9.214,18.553Z" transform="translate(0 6.866)" fill="#fff"/><ellipse cx="2.932" cy="2.932" rx="2.932" ry="2.932" transform="translate(24.628 18.134)" fill="#fff"/><path d="M26.544,21.8v.691a1.044,1.044,0,0,1-1.036,1.036H19.637V23.18a5.789,5.789,0,0,0-2.307-4.628A3.774,3.774,0,0,1,19.292,18h3.454A3.8,3.8,0,0,1,26.544,21.8Z" transform="translate(6.611 6.866)" fill="#fff"/><ellipse cx="4.144" cy="4.144" rx="4.144" ry="4.144" transform="translate(12.433 15.887)" fill="#fff"/><path d="M17.9,19H10.3a3.8,3.8,0,0,0-3.8,3.8v2.072a1.036,1.036,0,0,0,1.036,1.036H20.66A1.036,1.036,0,0,0,21.7,24.871V22.8A3.8,3.8,0,0,0,17.9,19Z" transform="translate(2.48 7.248)" fill="#fff"/></svg>