<svg xmlns="http://www.w3.org/2000/svg" width="33.155" height="33.155" viewBox="0 0 33.155 33.155"><path d="M16.578,0A16.578,16.578,0,1,0,33.155,16.578,16.6,16.6,0,0,0,16.578,0ZM30.392,16.578A13.717,13.717,0,0,1,29.23,22.1H19.34a2.763,2.763,0,0,0,0,5.526h5.49A13.783,13.783,0,0,1,3.042,19.34H17.959a2.763,2.763,0,1,0,0-5.526H11.052a1.381,1.381,0,0,1,0-2.763h1.381a2.763,2.763,0,0,0,0-5.526H8.325a13.744,13.744,0,0,1,18.1,1.381h-1.56a2.763,2.763,0,0,0,0,5.526h4.889A13.751,13.751,0,0,1,30.392,16.578Z" fill="#fff"/></svg>