<svg xmlns="http://www.w3.org/2000/svg" width="33.155" height="29.011" viewBox="0 0 33.155 29.011"><path d="M14.6,19.815a1.383,1.383,0,0,1-1.236-.764l-2.38-4.762h-2.6a1.381,1.381,0,1,1,0-2.763h3.454a1.383,1.383,0,0,1,1.236.764L14.6,15.344l4.289-8.58a1.382,1.382,0,0,1,2.386-.149l5.116,7.674H29.1a1.381,1.381,0,0,1,0,2.763H25.65a1.383,1.383,0,0,1-1.149-.615L20.3,10.129l-4.461,8.923a1.384,1.384,0,0,1-1.236.763Z" transform="translate(2.67 0.907)" fill="#fff"/><path d="M24.872,19.876l-1.564-2.347-2.332,4.664a4.146,4.146,0,0,1-7.416,0l-1.616-3.235h-.892a4.144,4.144,0,1,1,0-8.289h3.454a4.123,4.123,0,0,1,2.534.861l2.047-4.095a4.145,4.145,0,0,1,7.157-.442l3.825,5.739a16.755,16.755,0,0,0,.323-3.251A8.568,8.568,0,0,0,15.2,4.139,8.484,8.484,0,0,0,8.5,1,8.5,8.5,0,0,0,0,9.482c0,12.571,14.114,20.1,14.715,20.41a1.023,1.023,0,0,0,.481.119,1.038,1.038,0,0,0,.481-.117A35.153,35.153,0,0,0,26.132,21.07a4.133,4.133,0,0,1-1.26-1.194Z" transform="translate(0 -1)" fill="#fff"/></svg>