<svg xmlns="http://www.w3.org/2000/svg" width="27.332" height="27.333" viewBox="0 0 27.332 27.333"><path d="M0,13.256C0,5.636,5.969,0,13.668,0S27.333,5.638,27.333,13.256,21.365,26.51,13.667,26.51a14.915,14.915,0,0,1-3.952-.524,1.093,1.093,0,0,0-.729.057l-2.722,1.2a1.093,1.093,0,0,1-1.538-.968l-.08-2.437a1.1,1.1,0,0,0-.364-.774A12.97,12.97,0,0,1,0,13.257Zm9.476-2.494L5.468,17.139a.642.642,0,0,0,.934.854l4.316-3.269a.8.8,0,0,1,.991,0L14.9,17.116a2.056,2.056,0,0,0,2.961-.547l4.009-6.378a.642.642,0,0,0-.934-.854l-4.316,3.269a.787.787,0,0,1-.979,0l-3.189-2.392a2.05,2.05,0,0,0-2.973.547Z" transform="translate(-0.001)" fill="#fff"/></svg>