<svg xmlns="http://www.w3.org/2000/svg" width="134.801" height="138.839" viewBox="0 0 134.801 138.839"><g transform="translate(-18.925 -9.252)"><g transform="translate(28.925 9.252)"><g transform="translate(-10 0)"><g transform="translate(0.909)"><path d="M0,0H5.124V10.248H0Z" transform="translate(0 3.623) rotate(-45)" fill="#e1e8eb"/></g><g transform="translate(0 20.839)"><path d="M0,0H10.248V5.124H0Z" transform="translate(0 7.246) rotate(-45)" fill="#e1e8eb"/></g><g transform="translate(20.835 0.009)"><path d="M0,0H10.253V5.124H0Z" transform="translate(0 7.249) rotate(-45)" fill="#e1e8eb"/></g></g><g transform="translate(108.147 1.767)"><path d="M34.436,18.623a7.686,7.686,0,1,1,7.686-7.686A7.7,7.7,0,0,1,34.436,18.623Zm0-10.248A2.562,2.562,0,1,0,37,10.936,2.566,2.566,0,0,0,34.436,8.374Z" transform="translate(-26.75 -3.25)" fill="#e1e8eb"/></g></g><g transform="translate(34.589 39.202)"><path d="M111.8,113.8H17A10.246,10.246,0,0,1,6.75,103.547V19A10.246,10.246,0,0,1,17,8.75h94.8A10.246,10.246,0,0,1,122.044,19v84.549A10.246,10.246,0,0,1,111.8,113.8Z" transform="translate(-6.75 -8.75)" fill="#f3f7f9"/><g transform="translate(35.869 40.993)"><path d="M42.855,65.43H17.9a4.15,4.15,0,0,1-4.151-4.151V20.9A4.15,4.15,0,0,1,17.9,16.75H53.16A4.15,4.15,0,0,1,57.311,20.9V50.985a4.849,4.849,0,0,1-1.419,3.423l-9.608,9.608a4.878,4.878,0,0,1-3.428,1.414Z" transform="translate(-13.75 -16.75)" fill="#fee005"/></g></g><g transform="translate(34.589 39.202)"><path d="M18.279,103.547V19A10.246,10.246,0,0,1,28.528,8.75H17A10.246,10.246,0,0,0,6.75,19v84.549A10.246,10.246,0,0,0,17,113.8H28.528A10.246,10.246,0,0,1,18.279,103.547Z" transform="translate(-6.75 -8.75)" fill="#e1e8eb"/><g transform="translate(35.869 40.993)"><path d="M25.279,61.279V20.9A4.15,4.15,0,0,1,29.43,16.75H17.9A4.15,4.15,0,0,0,13.75,20.9V61.284A4.15,4.15,0,0,0,17.9,65.435H29.43a4.154,4.154,0,0,1-4.151-4.156Z" transform="translate(-13.75 -16.75)" fill="#f0b000"/></g></g><g transform="translate(30.746 28.954)"><g transform="translate(35.869 47.399)"><path d="M45.954,72.366H20.994A8,8,0,0,1,13,64.372V23.994A8,8,0,0,1,20.994,16H56.253a8,8,0,0,1,7.994,7.994V54.078a8.654,8.654,0,0,1-2.536,6.139l-9.618,9.608a8.754,8.754,0,0,1-6.139,2.542Zm-24.96-48.68-.307,40.686,25.267.307a.981.981,0,0,0,.7-.292l9.618-9.608a1,1,0,0,0,.292-.707V23.994Z" transform="translate(-13 -16)" fill="#063f58"/></g><g transform="translate(0 6.405)"><path d="M114.889,120.732h-94.8A14.1,14.1,0,0,1,6,106.64V22.091A14.1,14.1,0,0,1,20.091,8h94.8A14.1,14.1,0,0,1,128.98,22.091V106.64A14.1,14.1,0,0,1,114.889,120.732ZM20.091,15.686a6.414,6.414,0,0,0-6.405,6.405V106.64a6.414,6.414,0,0,0,6.405,6.405h94.8a6.414,6.414,0,0,0,6.405-6.405V22.091a6.414,6.414,0,0,0-6.405-6.405Z" transform="translate(-6 -8)" fill="#063f58"/></g><g transform="translate(3.843 32.026)"><path d="M6.75,13H122.044v7.686H6.75Z" transform="translate(-6.75 -13)" fill="#063f58"/></g><g transform="translate(25.621)"><path d="M11,6.75h7.686V24.685H11Z" transform="translate(-11 -6.75)" fill="#063f58"/></g><g transform="translate(89.673)"><path d="M23.5,6.75h7.686V24.685H23.5Z" transform="translate(-23.5 -6.75)" fill="#063f58"/></g><rect width="21" height="8" transform="translate(51.254 70.114)" fill="#063f58"/><rect width="21" height="8" transform="translate(57.754 84.614) rotate(-90)" fill="#063f58"/></g></g></svg>