<svg xmlns="http://www.w3.org/2000/svg" width="128" height="128" viewBox="0 0 128 128"><g transform="translate(-0.04)"><rect width="128" height="128" transform="translate(0.04)" fill="none"/><g transform="translate(73.682 31.21)"><path d="M290.2,104.842,293.042,102l5.655,5.655-2.842,2.842Z" transform="translate(-290.2 -102)" fill="#b4c5cd"/><g transform="translate(16.262 16.262)"><path d="M348,162.642l2.842-2.842,5.655,5.655-2.842,2.842Z" transform="translate(-348 -159.8)" fill="#b4c5cd"/></g><g transform="translate(15.558 0.028)"><path d="M345.5,107.755l5.655-5.655L354,104.942l-5.655,5.655Z" transform="translate(-345.5 -102.1)" fill="#b4c5cd"/></g></g><g transform="translate(32.69 88.829)"><path d="M202.513,332.824H144.5V318.813A12.007,12.007,0,0,1,156.513,306.8h34.015a12.007,12.007,0,0,1,12.013,12.013v14.011Z" transform="translate(-144.5 -306.8)" fill="#e9edef"/></g><g transform="translate(46.701 44.827)"><ellipse cx="14.996" cy="14.996" rx="14.996" ry="14.996" fill="#e9edef"/></g><g transform="translate(46.729 44.855)"><path d="M224.335,164.68c-6.809,1.041-10.972-6.19-10.972-6.19-7.034,6.555-15.952,6.415-18.963,6.133a14.991,14.991,0,0,1,29.935.056Z" transform="translate(-194.4 -150.5)" fill="#fee005"/></g><g transform="translate(32.69 88.829)"><path d="M165.517,306.8h-9A12.007,12.007,0,0,0,144.5,318.813v14.011h9V318.813A12.007,12.007,0,0,1,165.517,306.8Z" transform="translate(-144.5 -306.8)" fill="#d8dfe2"/></g><g transform="translate(46.701 44.827)"><path d="M203.3,165.4A14.937,14.937,0,0,1,213.8,151.16a15,15,0,1,0,0,28.472A14.911,14.911,0,0,1,203.3,165.4Z" transform="translate(-194.3 -150.4)" fill="#d8dfe2"/></g><g transform="translate(46.729 44.827)"><path d="M213.869,151.16A14.8,14.8,0,0,0,194.4,164.524a27.056,27.056,0,0,0,9.116-.816A14.9,14.9,0,0,1,213.869,151.16Z" transform="translate(-194.4 -150.4)" fill="#f0b000"/></g><g transform="translate(46.475 49.884)"><path d="M222.338,180.62c-4.642,0-8.075-2.785-10.1-5.008-7.54,5.346-16.093,5.064-18.738,4.839l.563-5.965c2.335.225,10.41.478,16.656-5.317a3,3,0,0,1,2.5-.76,3.094,3.094,0,0,1,2.166,1.463c.028.028,3.235,5.4,7.906,4.727l.9,5.936c-.675.056-1.266.084-1.857.084Z" transform="translate(-193.5 -168.374)" fill="#063f58"/></g><g transform="translate(43.69 41.817)"><path d="M201.606,175.712a18.006,18.006,0,1,1,18.006-18.006A18.023,18.023,0,0,1,201.606,175.712Zm0-29.991a12.013,12.013,0,1,0,12.013,12.013A12.025,12.025,0,0,0,201.606,145.721Z" transform="translate(-183.6 -139.7)" fill="#063f58"/></g><g transform="translate(29.679 85.819)"><path d="M169.84,328.117H136.81a3.014,3.014,0,0,1-3.01-3.01V311.1a15.009,15.009,0,0,1,15-15h25.1v5.993H148.8a9.03,9.03,0,0,0-9,9v11h30.02v6.021Z" transform="translate(-133.8 -296.1)" fill="#063f58"/></g><g transform="translate(53.622 85.819)"><path d="M222.98,328.117h33a3.014,3.014,0,0,0,3.01-3.01V311.1a15.009,15.009,0,0,0-15-15H218.9v5.993H244a9.03,9.03,0,0,1,9,9v11H222.98Z" transform="translate(-218.9 -296.1)" fill="#063f58"/></g></g></svg>