<svg xmlns="http://www.w3.org/2000/svg" width="27.219" height="27.349" viewBox="0 0 27.219 27.349"><path d="M19.9,16.389c-.338-.17-2-.988-2.313-1.1s-.537-.169-.763.171-.874,1.1-1.071,1.326-.4.254-.734.085A9.3,9.3,0,0,1,12.3,15.189a10.194,10.194,0,0,1-1.884-2.346c-.2-.338-.021-.522.148-.691.153-.152.34-.4.508-.593a2.336,2.336,0,0,0,.34-.566.62.62,0,0,0-.028-.593c-.085-.17-.762-1.837-1.044-2.515-.276-.66-.555-.57-.762-.581s-.423-.011-.65-.011a1.241,1.241,0,0,0-.9.424,3.8,3.8,0,0,0-1.185,2.825,6.6,6.6,0,0,0,1.382,3.5,15.105,15.105,0,0,0,5.785,5.113,19.142,19.142,0,0,0,1.93.712A4.619,4.619,0,0,0,18.068,20a3.488,3.488,0,0,0,2.286-1.61,2.817,2.817,0,0,0,.2-1.61c-.084-.141-.31-.226-.65-.4m-6.177,8.436h0a11.248,11.248,0,0,1-5.734-1.571l-.411-.243L3.312,24.13l1.137-4.157-.268-.426a11.265,11.265,0,1,1,9.543,5.278m9.587-20.85A13.555,13.555,0,0,0,1.981,20.326L.057,27.349l7.185-1.885a13.54,13.54,0,0,0,6.476,1.65h.006a13.558,13.558,0,0,0,9.587-23.14Z" transform="translate(-0.057 0)" fill="#fff"/></svg>